<?xml version="1.0" standalone="no"?>
<!DOCTYPE svg PUBLIC "-//W3C//DTD SVG 20010904//EN"
 "http://www.w3.org/TR/2001/REC-SVG-20010904/DTD/svg10.dtd">
<svg version="1.0" xmlns="http://www.w3.org/2000/svg"
 width="96.000000pt" height="96.000000pt" viewBox="0 0 96.000000 96.000000"
 preserveAspectRatio="xMidYMid meet">

<g transform="translate(0.000000,96.000000) scale(0.100000,-0.100000)"
fill="#000000" stroke="none">
<path d="M65 735 l-25 -24 0 -236 0 -235 39 0 c35 0 40 -3 46 -29 3 -15 20
-41 36 -57 25 -24 39 -29 79 -29 40 0 54 5 79 29 16 16 33 42 36 57 l7 29 118
0 118 0 7 -29 c3 -15 20 -41 36 -57 25 -24 39 -29 79 -29 40 0 54 5 79 29 16
16 33 42 36 57 6 26 11 29 46 29 l39 0 0 100 0 100 -56 113 c-31 61 -62 115
-68 119 -6 4 -44 8 -83 8 l-73 0 0 40 0 40 -275 0 -276 0 -24 -25z m495 -235
l0 -180 -117 0 c-97 0 -120 3 -136 17 -13 12 -35 18 -67 18 -32 0 -54 -6 -67
-18 -11 -9 -27 -17 -36 -17 -15 0 -17 18 -17 180 l0 180 220 0 220 0 0 -180z
m210 60 l20 -40 -75 0 -75 0 0 40 0 40 55 0 c54 0 55 -1 75 -40z m68 -182 c3
-49 0 -58 -14 -58 -10 0 -25 7 -34 15 -27 24 -84 30 -119 12 l-31 -15 0 54 0
55 98 -3 97 -3 3 -57z m-564 -104 c31 -30 9 -84 -34 -84 -24 0 -50 26 -50 50
0 10 7 26 16 34 8 9 24 16 34 16 10 0 26 -7 34 -16z m480 0 c31 -30 9 -84 -34
-84 -24 0 -50 26 -50 50 0 24 26 50 50 50 10 0 26 -7 34 -16z"/>
</g>
</svg>
