<?xml version="1.0" standalone="no"?>
<!DOCTYPE svg PUBLIC "-//W3C//DTD SVG 20010904//EN"
 "http://www.w3.org/TR/2001/REC-SVG-20010904/DTD/svg10.dtd">
<svg version="1.0" xmlns="http://www.w3.org/2000/svg"
 width="96.000000pt" height="96.000000pt" viewBox="0 0 96.000000 96.000000"
 preserveAspectRatio="xMidYMid meet">

<g transform="translate(0.000000,96.000000) scale(0.100000,-0.100000)"
fill="#000000" stroke="none">
<path d="M355 868 c-29 -15 -45 -38 -45 -64 0 -17 -7 -23 -39 -28 -68 -10
-105 -90 -67 -141 12 -17 11 -22 -10 -41 -46 -44 -39 -111 16 -142 24 -13 30
-24 30 -50 0 -18 4 -41 9 -50 7 -13 -4 -38 -40 -100 -27 -45 -49 -85 -49 -87
0 -3 31 -5 69 -5 l69 0 17 -43 c9 -23 21 -53 27 -67 8 -22 13 -17 71 83 l63
106 64 -105 63 -105 27 63 27 63 66 3 c37 2 67 5 67 7 0 2 -21 38 -46 81 -39
67 -44 81 -35 101 6 13 11 38 11 56 0 25 7 36 30 49 28 16 50 52 50 82 0 7
-12 31 -26 52 -21 30 -24 42 -15 56 33 53 -15 138 -78 138 -25 0 -31 4 -31 21
0 11 -13 34 -29 50 -34 34 -83 39 -120 13 -22 -16 -25 -16 -51 0 -32 18 -66
20 -95 4z m139 -104 c19 4 39 13 46 21 15 18 30 11 30 -14 0 -33 39 -71 80
-77 34 -6 38 -9 30 -25 -19 -34 -12 -88 15 -113 29 -27 31 -36 10 -36 -9 0
-27 -11 -40 -25 -19 -18 -25 -35 -25 -70 0 -42 -2 -45 -19 -35 -42 22 -100 4
-122 -37 l-13 -25 -27 34 c-26 30 -32 33 -82 32 l-55 -2 5 34 c5 27 0 38 -25
64 -17 16 -38 30 -46 30 -22 0 -20 4 14 38 33 33 37 63 16 103 -13 25 -12 26
30 37 43 12 74 48 74 86 0 13 6 12 35 -5 26 -16 44 -19 69 -15z m-95 -462 c7
-14 5 -27 -11 -53 -11 -19 -21 -35 -22 -36 -1 -2 -18 5 -37 15 l-35 18 18 29
c15 26 37 39 70 44 4 1 12 -7 17 -17z m240 -29 c14 -31 14 -43 -1 -43 -6 0
-19 -7 -29 -16 -17 -15 -19 -14 -38 17 -25 41 -26 47 -5 70 20 22 56 9 73 -28z"/>
<path d="M503 618 l-42 -42 -26 24 -26 24 -29 -30 -30 -30 55 -54 55 -54 75
74 75 74 -27 28 c-15 15 -29 28 -33 28 -3 0 -24 -19 -47 -42z"/>
</g>
</svg>
